#tb 0: 1/12
#tb 1: 1/22050
0,          0,          0,        1,     9600, 0xc5921aa2
1,          0,          0,     1020,     2040, 0x0a157db4
1,       1020,       1020,     1020,     2040, 0x00c63e08
0,          1,          1,        1,     9600, 0x9032fc52
1,       2040,       2040,     1020,     2040, 0xacf2a25b
1,       3060,       3060,     1020,     2040, 0xd6189e85
0,          2,          2,        1,     9600, 0x7db0038e
1,       4080,       4080,     1020,     2040, 0x8276f843
1,       5100,       5100,     1020,     2040, 0xadebae73
0,          3,          3,        1,     9600, 0x95b73c41
1,       6120,       6120,     1020,     2040, 0x5da76697
1,       7140,       7140,     1020,     2040, 0x469d0ea7
0,          4,          4,        1,     9600, 0x531e4189
1,       8160,       8160,     1020,     2040, 0x0d7412e1
1,       9180,       9180,     1020,     2040, 0x2f2cc63f
0,          5,          5,        1,     9600, 0xb73390ec
1,      10200,      10200,     1020,     2040, 0x10106eb7
0,          6,          6,        1,     9600, 0x958e8221
1,      11220,      11220,     1020,     2040, 0x300124c7
1,      12240,      12240,     1020,     2040, 0xa329f8e8
0,          7,          7,        1,     9600, 0xd393f8a6
1,      13260,      13260,     1020,     2040, 0xcea35ca5
1,      14280,      14280,     1020,     2040, 0x55105aef
0,          8,          8,        1,     9600, 0xa085da1c
1,      15300,      15300,     1020,     2040, 0x08980ce1
1,      16320,      16320,     1020,     2040, 0x367faf24
0,          9,          9,        1,     9600, 0x57ace74f
1,      17340,      17340,     1020,     2040, 0x75bfef06
1,      18360,      18360,     1020,     2040, 0x34f1daf4
0,         10,         10,        1,     9600, 0x5d11a308
1,      19380,      19380,     1020,     2040, 0x97050317
0,         11,         11,        1,     9600, 0x13e133b7
1,      20400,      20400,     1020,     2040, 0xd297c536
1,      21420,      21420,     1020,     2040, 0xa8abad5a
0,         12,         12,        1,     9600, 0x494edb86
1,      22440,      22440,     1020,     2040, 0x445ce8e0
1,      23460,      23460,     1020,     2040, 0xa3f4d940
0,         13,         13,        1,     9600, 0x43a448ea
1,      24480,      24480,     1020,     2040, 0x0ebb7b26
1,      25500,      25500,     1020,     2040, 0x4372f6f6
0,         14,         14,        1,     9600, 0x3562d35b
1,      26520,      26520,     1020,     2040, 0xd4365079
1,      27540,      27540,     1020,     2040, 0x56f902f7
0,         15,         15,        1,     9600, 0x0bc655d2
1,      28560,      28560,     1020,     2040, 0x4153938a
0,         16,         16,        1,     9600, 0xbece73a1
1,      29580,      29580,     1020,     2040, 0x14996d86
1,      30600,      30600,     1020,     2040, 0x3f99c318
0,         17,         17,        1,     9600, 0x82e7cfa1
1,      31620,      31620,     1020,     2040, 0x939978a5
1,      32640,      32640,     1020,     2040, 0x7086bd44
0,         18,         18,        1,     9600, 0xda29fd8f
1,      33660,      33660,      138,      276, 0x25b89d22
1,      33798,      33798,     1020,     2040, 0xf3edb106
1,      34818,      34818,     1020,     2040, 0x0ca61430
0,         19,         19,        1,     9600, 0x70fb700b
1,      35838,      35838,     1020,     2040, 0x7229c458
0,         20,         20,        1,     9600, 0xaf57a6b0
1,      36858,      36858,     1020,     2040, 0xc37edd31
1,      37878,      37878,     1020,     2040, 0xa3da98b4
0,         21,         21,        1,     9600, 0x0a5ed9b9
1,      38898,      38898,     1020,     2040, 0x69704803
1,      39918,      39918,     1020,     2040, 0xa79bf334
0,         22,         22,        1,     9600, 0xf7c62c38
1,      40938,      40938,     1020,     2040, 0x59d8d4c4
1,      41958,      41958,     1020,     2040, 0xf9ff0271
0,         23,         23,        1,     9600, 0x0aa2ccfd
1,      42978,      42978,     1020,     2040, 0xc4ced9d6
1,      43998,      43998,     1020,     2040, 0x859f1912
0,         24,         24,        1,     9600, 0xc9adabae
1,      45018,      45018,     1020,     2040, 0xe7955aa6
0,         25,         25,        1,     9600, 0x67ff0aba
1,      46038,      46038,     1020,     2040, 0x374624fd
1,      47058,      47058,     1020,     2040, 0x52121097
0,         26,         26,        1,     9600, 0xea79a465
1,      48078,      48078,     1020,     2040, 0x660fe645
1,      49098,      49098,     1020,     2040, 0xf624176a
0,         27,         27,        1,     9600, 0x8928c626
1,      50118,      50118,     1020,     2040, 0x1f2246dd
1,      51138,      51138,     1020,     2040, 0x940e0a32
0,         28,         28,        1,     9600, 0x8dab4111
1,      52158,      52158,     1020,     2040, 0x9c6d338c
1,      53178,      53178,     1020,     2040, 0xfce0d30a
0,         29,         29,        1,     9600, 0x81ef63f9
1,      54198,      54198,     1020,     2040, 0xd0ec9aa5
0,         30,         30,        1,     9600, 0xf977bc5e
1,      55218,      55218,     1020,     2040, 0x58012141
1,      56238,      56238,     1020,     2040, 0xde67fc43
0,         31,         31,        1,     9600, 0x9e6a3f4a
1,      57258,      57258,     1020,     2040, 0x6baa0450
1,      58278,      58278,     1020,     2040, 0xf4f80252
0,         32,         32,        1,     9600, 0x77c92865
1,      59298,      59298,     1020,     2040, 0x0cd47ee3
1,      60318,      60318,     1020,     2040, 0x129cbaa7
0,         33,         33,        1,     9600, 0x3915170d
1,      61338,      61338,     1020,     2040, 0x5ef5c0a1
1,      62358,      62358,     1020,     2040, 0xf660baa7
0,         34,         34,        1,     9600, 0xbe19b995
1,      63378,      63378,     1020,     2040, 0xe48bc0a1
0,         35,         35,        1,     9600, 0x3e8a3077
1,      64398,      64398,     1020,     2040, 0xdfeabaa7
1,      65418,      65418,     1020,     2040, 0xed04c0a1
0,         36,         36,        1,     9600, 0x1331342e
1,      66438,      66438,     1020,     2040, 0xd771baa7
1,      67458,      67458,      150,      300, 0x521f24e9
1,      67608,      67608,      738,     1476, 0x9b9394b1
0,         37,         37,        1,     9600, 0x4d692175
